<svg width="301" height="230" viewBox="0 0 301 230" fill="none" xmlns="http://www.w3.org/2000/svg">
<g filter="url(#filter0_f_1_3345)">
<ellipse cx="147.528" cy="186.812" rx="110.607" ry="21.3375" fill="#1F88F8" fill-opacity="0.35"/>
</g>
<path d="M148.743 229.402C212.09 229.402 263.444 178.049 263.444 114.701C263.444 51.3534 212.09 0 148.743 0C85.3953 0 34.0419 51.3534 34.0419 114.701C34.0419 178.049 85.3953 229.402 148.743 229.402Z" fill="url(#paint0_linear_1_3345)"/>
<g filter="url(#filter1_d_1_3345)">
<path d="M244.824 77.624L146.533 146.219L48.2426 77.624L138.22 14.8054C140.66 13.1047 143.563 12.1929 146.537 12.1929C149.512 12.1929 152.415 13.1047 154.855 14.8054L172.803 27.3528L177.502 30.6161L224.82 63.657L229.805 67.1569L244.824 77.624Z" fill="url(#paint1_linear_1_3345)"/>
</g>
<path d="M130.551 135.066L48.2426 193.594V77.624L130.551 135.066Z" fill="url(#paint2_linear_1_3345)"/>
<path d="M162.523 135.066L244.832 193.594V77.624L162.523 135.066Z" fill="url(#paint3_linear_1_3345)"/>
<path d="M48.2426 193.594L138.114 129.698C140.574 127.947 143.518 127.006 146.537 127.006C149.557 127.006 152.501 127.947 154.961 129.698L244.824 193.594H48.2426Z" fill="url(#paint4_linear_1_3345)"/>
<g filter="url(#filter2_d_1_3345)">
<path d="M58.628 56.6098C43.5594 63.6585 27.3669 67.9976 10.7928 69.428C13.0324 74.6339 28.9446 100.693 76.1806 122.165C77.4575 122.361 106.954 108.639 123.141 99.2292C122.591 100.015 72.8606 81.7159 58.628 56.6098Z" fill="url(#paint5_linear_1_3345)"/>
</g>
<path d="M59.7941 69.566C59.1006 69.0849 58.2224 68.955 57.4194 69.2148L31.0554 77.7443C30.111 78.0499 29.7745 79.2131 30.4099 79.9757V79.9757C30.9217 80.5898 31.7593 80.8243 32.5155 80.5653L59.5521 71.3048C60.315 71.0435 60.4567 70.0257 59.7941 69.566V69.566Z" fill="#C9DFFF"/>
<path d="M59.337 80.0711C58.6683 79.4433 57.7085 79.234 56.8392 79.5266L38.5878 85.669C37.783 85.9399 37.4988 86.9329 38.0385 87.5885V87.5885C38.4794 88.1241 39.206 88.3306 39.8627 88.107L59.0092 81.5878C59.6555 81.3678 59.8348 80.5385 59.337 80.0711V80.0711Z" fill="#C9DFFF"/>
<path d="M69.1332 85.273C68.4354 84.7142 67.4969 84.5595 66.6567 84.8649L45.6333 92.5058C44.8082 92.8057 44.5599 93.8525 45.1624 94.491V94.491C45.6233 94.9796 46.3311 95.1463 46.9617 94.915L68.8718 86.8747C69.5529 86.6248 69.6995 85.7265 69.1332 85.273V85.273Z" fill="#C9DFFF"/>
<path d="M76.483 101.044C75.8367 100.33 74.8182 100.086 73.9182 100.429L61.9033 105.014C61.1655 105.296 60.8995 106.203 61.3686 106.838V106.838C61.8081 107.434 62.5917 107.661 63.2818 107.394L76.1599 102.406C76.7153 102.191 76.8826 101.486 76.483 101.044V101.044Z" fill="#C9DFFF"/>
<g filter="url(#filter3_d_1_3345)">
<path d="M232.812 92.9507C251.084 101.498 270.718 106.759 290.815 108.494C288.1 114.806 268.805 146.404 211.529 172.44C209.98 172.678 174.214 156.039 154.586 144.629C155.253 145.582 215.554 123.393 232.812 92.9507Z" fill="url(#paint6_linear_1_3345)"/>
</g>
<path d="M231.399 108.661C232.24 108.078 233.305 107.92 234.278 108.235L266.246 118.578C267.391 118.948 267.799 120.359 267.029 121.284V121.284C266.408 122.028 265.393 122.313 264.476 121.998L231.692 110.77C230.767 110.453 230.595 109.219 231.399 108.661V108.661Z" fill="#C9DFFF"/>
<path d="M222.448 117.175C223.259 116.413 224.423 116.16 225.477 116.514L247.608 123.962C248.584 124.291 248.928 125.495 248.274 126.29V126.29C247.739 126.939 246.858 127.19 246.062 126.919L222.846 119.014C222.062 118.747 221.845 117.741 222.448 117.175V117.175Z" fill="#C9DFFF"/>
<path d="M213.25 124.242C214.096 123.564 215.234 123.377 216.253 123.747L241.745 133.012C242.745 133.376 243.046 134.645 242.316 135.419V135.419C241.757 136.012 240.899 136.214 240.134 135.933L213.567 126.184C212.741 125.881 212.563 124.792 213.25 124.242V124.242Z" fill="#C9DFFF"/>
<path d="M192.552 138.382C193.336 137.516 194.571 137.219 195.662 137.636L210.231 143.195C211.126 143.537 211.448 144.637 210.879 145.407V145.407C210.346 146.129 209.396 146.405 208.559 146.081L192.944 140.033C192.27 139.772 192.068 138.917 192.552 138.382V138.382Z" fill="#C9DFFF"/>
<path d="M202.062 130.831C202.924 130.29 203.988 130.178 204.944 130.527L238.512 142.801C239.585 143.193 239.845 144.592 238.985 145.343V145.343C238.416 145.84 237.621 145.987 236.912 145.726L202.284 132.97C201.351 132.626 201.219 131.359 202.062 130.831V130.831Z" fill="#C9DFFF"/>
<path d="M83.754 88.7204C83.0428 88.2742 82.1653 88.1819 81.3768 88.4702L53.6932 98.5922C52.8084 98.9157 52.5941 100.069 53.3036 100.689V100.689C53.7729 101.099 54.4286 101.22 55.0133 101.005L83.5705 90.4847C84.3407 90.201 84.4493 89.1565 83.754 88.7204V88.7204Z" fill="#C9DFFF"/>
<path d="M243.764 26.9985C243.764 29.644 241.619 31.7886 238.974 31.7886C236.328 31.7886 234.184 29.644 234.184 26.9985C234.184 24.353 236.328 22.2084 238.974 22.2084C241.619 22.2084 243.764 24.353 243.764 26.9985Z" stroke="url(#paint7_linear_1_3345)" stroke-width="2.61276"/>
<circle cx="69.1447" cy="204.666" r="4.79006" stroke="url(#paint8_linear_1_3345)" stroke-width="2.61276"/>
<circle cx="216.33" cy="214.246" r="4.79006" stroke="url(#paint9_linear_1_3345)" stroke-width="2.61276"/>
<path d="M85.4019 31.9319C85.9167 29.799 88.9507 29.799 89.4656 31.9319L91.1985 39.1108C91.3825 39.873 91.9776 40.4681 92.7399 40.6521L99.9187 42.3851C102.052 42.8999 102.052 45.9339 99.9187 46.4488L92.7398 48.1817C91.9776 48.3657 91.3825 48.9608 91.1985 49.7231L89.4656 56.9019C88.9507 59.0348 85.9167 59.0348 85.4019 56.9019L83.6689 49.723C83.4849 48.9608 82.8898 48.3657 82.1276 48.1817L74.9487 46.4488C72.8158 45.9339 72.8158 42.8999 74.9487 42.3851L82.1276 40.6521C82.8898 40.4681 83.4849 39.873 83.6689 39.1108L85.4019 31.9319Z" fill="url(#paint10_linear_1_3345)"/>
<path d="M259.912 183.417C260.427 181.284 263.461 181.284 263.976 183.417L265.709 190.596C265.893 191.358 266.488 191.953 267.25 192.137L274.429 193.87C276.562 194.385 276.562 197.419 274.429 197.934L267.25 199.667C266.488 199.851 265.893 200.446 265.709 201.208L263.976 208.387C263.461 210.52 260.427 210.52 259.912 208.387L258.179 201.208C257.995 200.446 257.4 199.851 256.638 199.667L249.459 197.934C247.326 197.419 247.326 194.385 249.459 193.87L256.638 192.137C257.4 191.953 257.995 191.358 258.179 190.596L259.912 183.417Z" fill="url(#paint11_linear_1_3345)"/>
<path d="M37.2756 166.614C38.5996 166.402 39.6566 167.703 39.1782 168.956L35.9492 177.411C35.4708 178.664 33.8158 178.929 32.9702 177.888L27.2622 170.864C26.4166 169.823 27.0146 168.258 28.3386 168.046L37.2756 166.614Z" fill="url(#paint12_linear_1_3345)"/>
<path d="M263.371 80.4219C263.039 79.1226 264.239 77.9519 265.53 78.3147L274.243 80.7633C275.534 81.126 275.948 82.7502 274.988 83.6867L268.511 90.0084C267.552 90.9449 265.938 90.4915 265.607 89.1922L263.371 80.4219Z" fill="url(#paint13_linear_1_3345)"/>
<defs>
<filter id="filter0_f_1_3345" x="15.1478" y="143.702" width="264.76" height="86.2211" filterUnits="userSpaceOnUse" color-interpolation-filters="sRGB">
<feFlood flood-opacity="0" result="BackgroundImageFix"/>
<feBlend mode="normal" in="SourceGraphic" in2="BackgroundImageFix" result="shape"/>
<feGaussianBlur stdDeviation="10.8865" result="effect1_foregroundBlur_1_3345"/>
</filter>
<filter id="filter1_d_1_3345" x="44.7589" y="12.1929" width="203.549" height="140.993" filterUnits="userSpaceOnUse" color-interpolation-filters="sRGB">
<feFlood flood-opacity="0" result="BackgroundImageFix"/>
<feColorMatrix in="SourceAlpha" type="matrix" values="0 0 0 0 0 0 0 0 0 0 0 0 0 0 0 0 0 0 127 0" result="hardAlpha"/>
<feOffset dy="3.48368"/>
<feGaussianBlur stdDeviation="1.74184"/>
<feComposite in2="hardAlpha" operator="out"/>
<feColorMatrix type="matrix" values="0 0 0 0 0 0 0 0 0 0 0 0 0 0 0 0 0 0 0.25 0"/>
<feBlend mode="normal" in2="BackgroundImageFix" result="effect1_dropShadow_1_3345"/>
<feBlend mode="normal" in="SourceGraphic" in2="effect1_dropShadow_1_3345" result="shape"/>
</filter>
<filter id="filter2_d_1_3345" x="0.341809" y="49.6424" width="133.251" height="86.4589" filterUnits="userSpaceOnUse" color-interpolation-filters="sRGB">
<feFlood flood-opacity="0" result="BackgroundImageFix"/>
<feColorMatrix in="SourceAlpha" type="matrix" values="0 0 0 0 0 0 0 0 0 0 0 0 0 0 0 0 0 0 127 0" result="hardAlpha"/>
<feOffset dy="3.48368"/>
<feGaussianBlur stdDeviation="5.22552"/>
<feComposite in2="hardAlpha" operator="out"/>
<feColorMatrix type="matrix" values="0 0 0 0 0.0196078 0 0 0 0 0.168627 0 0 0 0 0.396078 0 0 0 0.15 0"/>
<feBlend mode="normal" in2="BackgroundImageFix" result="effect1_dropShadow_1_3345"/>
<feBlend mode="normal" in="SourceGraphic" in2="effect1_dropShadow_1_3345" result="shape"/>
</filter>
<filter id="filter3_d_1_3345" x="134.5" y="91.2088" width="165.841" height="109.103" filterUnits="userSpaceOnUse" color-interpolation-filters="sRGB">
<feFlood flood-opacity="0" result="BackgroundImageFix"/>
<feColorMatrix in="SourceAlpha" type="matrix" values="0 0 0 0 0 0 0 0 0 0 0 0 0 0 0 0 0 0 127 0" result="hardAlpha"/>
<feOffset dx="-5.28021" dy="13.0638"/>
<feGaussianBlur stdDeviation="7.40282"/>
<feComposite in2="hardAlpha" operator="out"/>
<feColorMatrix type="matrix" values="0 0 0 0 0.021441 0 0 0 0 0.168056 0 0 0 0 0.395833 0 0 0 0.15 0"/>
<feBlend mode="normal" in2="BackgroundImageFix" result="effect1_dropShadow_1_3345"/>
<feBlend mode="normal" in="SourceGraphic" in2="effect1_dropShadow_1_3345" result="shape"/>
</filter>
<linearGradient id="paint0_linear_1_3345" x1="147.859" y1="-37.3495" x2="150.208" y2="365.463" gradientUnits="userSpaceOnUse">
<stop stop-color="#21262D"/>
<stop offset="1" stop-color="#BCD8FF"/>
</linearGradient>
<linearGradient id="paint1_linear_1_3345" x1="146.533" y1="12.1929" x2="146.533" y2="146.219" gradientUnits="userSpaceOnUse">
<stop stop-color="#EDF4FF"/>
<stop offset="1" stop-color="#ABCCFF"/>
</linearGradient>
<linearGradient id="paint2_linear_1_3345" x1="89.3969" y1="77.624" x2="89.3969" y2="193.594" gradientUnits="userSpaceOnUse">
<stop stop-color="#ABCCFF"/>
<stop offset="1" stop-color="#70A8FF"/>
</linearGradient>
<linearGradient id="paint3_linear_1_3345" x1="203.678" y1="77.624" x2="203.678" y2="193.594" gradientUnits="userSpaceOnUse">
<stop stop-color="#ABCCFF"/>
<stop offset="1" stop-color="#70A8FF"/>
</linearGradient>
<linearGradient id="paint4_linear_1_3345" x1="146.533" y1="127.006" x2="146.533" y2="193.594" gradientUnits="userSpaceOnUse">
<stop stop-color="#70A8FF"/>
<stop offset="1" stop-color="#5597FD"/>
</linearGradient>
<linearGradient id="paint5_linear_1_3345" x1="22.9857" y1="85.7856" x2="96.5784" y2="71.4154" gradientUnits="userSpaceOnUse">
<stop stop-color="#C6DDFF"/>
<stop offset="1" stop-color="white"/>
</linearGradient>
<linearGradient id="paint6_linear_1_3345" x1="276.031" y1="128.328" x2="186.795" y2="110.903" gradientUnits="userSpaceOnUse">
<stop stop-color="#C6DDFF"/>
<stop offset="1" stop-color="white"/>
</linearGradient>
<linearGradient id="paint7_linear_1_3345" x1="231.48" y1="23.1882" x2="250.532" y2="39.6994" gradientUnits="userSpaceOnUse">
<stop stop-color="#94BFFF"/>
<stop offset="1" stop-color="#4C94FE"/>
</linearGradient>
<linearGradient id="paint8_linear_1_3345" x1="61.6511" y1="200.856" x2="80.7025" y2="217.367" gradientUnits="userSpaceOnUse">
<stop stop-color="#94BFFF"/>
<stop offset="1" stop-color="#4C94FE"/>
</linearGradient>
<linearGradient id="paint9_linear_1_3345" x1="208.837" y1="210.436" x2="227.888" y2="226.947" gradientUnits="userSpaceOnUse">
<stop stop-color="#94BFFF"/>
<stop offset="1" stop-color="#4C94FE"/>
</linearGradient>
<linearGradient id="paint10_linear_1_3345" x1="87.4337" y1="23.5148" x2="87.4337" y2="65.319" gradientUnits="userSpaceOnUse">
<stop stop-color="#70A8FF"/>
<stop offset="1" stop-color="#5597FD"/>
</linearGradient>
<linearGradient id="paint11_linear_1_3345" x1="261.944" y1="175" x2="261.944" y2="216.804" gradientUnits="userSpaceOnUse">
<stop stop-color="#70A8FF"/>
<stop offset="1" stop-color="#5597FD"/>
</linearGradient>
<linearGradient id="paint12_linear_1_3345" x1="40.2546" y1="166.137" x2="26.7367" y2="177.122" gradientUnits="userSpaceOnUse">
<stop stop-color="#70A8FF"/>
<stop offset="1" stop-color="#5597FD"/>
</linearGradient>
<linearGradient id="paint13_linear_1_3345" x1="262.625" y1="77.4985" x2="274.791" y2="89.9639" gradientUnits="userSpaceOnUse">
<stop stop-color="#70A8FF"/>
<stop offset="1" stop-color="#5597FD"/>
</linearGradient>
</defs>
</svg>
